<?xml version="1.0" encoding="UTF-8" standalone="no"?>
<!DOCTYPE svg PUBLIC "-//W3C//DTD SVG 1.1//EN" "http://www.w3.org/Graphics/SVG/1.1/DTD/svg11.dtd">
<svg width="100%" height="100%" viewBox="0 0 882 746" version="1.1" xmlns="http://www.w3.org/2000/svg" xmlns:xlink="http://www.w3.org/1999/xlink" xml:space="preserve" xmlns:serif="http://www.serif.com/" style="fill-rule:evenodd;clip-rule:evenodd;stroke-linejoin:round;stroke-miterlimit:2;">
    <g transform="matrix(1.93633,0,0,1.93633,159.994,168.621)">
        <path d="M191.939,142.955C182.816,144.428 178.152,151.167 178.152,163.026C178.152,174.958 184.365,182.938 193.89,182.938C198.322,182.938 202.349,181.465 210.814,177.313L210.814,186.965C200.654,191.625 194.673,193.067 186.488,193.067C177.625,193.067 171.39,190.713 166.298,185.524C161.08,180.304 158.47,173.409 158.47,165.733C158.47,148.655 171.113,137.1 189.58,137.1C201.845,137.1 210.281,142.704 210.281,150.934C210.281,156.233 206.355,159.879 200.529,159.879C197.539,159.879 195.082,159.096 191.939,157.271L191.939,142.955Z" style="fill-rule:nonzero;"/>
        <path d="M146.919,165.733C155.099,155.421 157.988,151.263 157.988,146.2C157.988,141.159 153.986,137.1 148.64,137.1C145.347,137.1 142.383,138.655 140.936,140.271L140.936,161.276L127.533,179.133L127.533,138.421L114.791,138.421L93.609,173.538L93.609,138.421L86.287,138.421L67.058,143.109L67.058,148.024L77.546,149.088L77.546,192.155L91.103,192.155L111.42,158.767L111.42,192.155L126.266,192.155L146.919,165.733Z" style="fill-rule:nonzero;"/>
        <path d="M26.572,209.057L35.363,211.012L35.363,216L0.876,216L0.876,211.012L8.736,209.057L8.736,148.809L0,148.809L0,143.642L21.097,137.234L26.572,137.234L26.572,144.428C36.453,138.549 39.847,137.508 44.916,137.508C56.621,137.508 65.259,148.303 65.259,163.25C65.259,180.53 53.732,192.155 35.568,192.155C33.513,192.155 30.095,192.03 26.572,191.625L26.572,209.057ZM26.572,185.524C28.015,185.592 28.648,185.592 29.56,185.592C40.48,185.592 46.334,178.784 46.334,165.733C46.334,154.684 41.544,148.809 32.705,148.809C31.234,148.809 29.689,148.988 26.572,149.367L26.572,185.524Z" style="fill-rule:nonzero;"/>
    </g>
</svg>
